<?xml version="1.0" standalone="no"?>
<!DOCTYPE svg PUBLIC "-//W3C//DTD SVG 20010904//EN"
 "http://www.w3.org/TR/2001/REC-SVG-20010904/DTD/svg10.dtd">
<svg version="1.0" xmlns="http://www.w3.org/2000/svg"
 width="500.000000pt" height="500.000000pt" viewBox="0 0 500.000000 500.000000"
 preserveAspectRatio="xMidYMid meet">

<g transform="translate(0.000000,500.000000) scale(0.100000,-0.100000)"
fill="#000000" stroke="none">
<path d="M2340 3713 c-183 -29 -350 -106 -485 -223 -107 -93 -191 -206 -248
-336 -59 -136 -72 -208 -71 -389 0 -145 3 -169 28 -250 61 -199 170 -363 325
-487 89 -72 227 -145 324 -172 77 -22 236 -44 295 -40 116 7 313 55 357 88 13
10 15 86 13 643 l-3 632 -127 -70 -128 -70 0 -490 c0 -459 -1 -489 -17 -489
-10 0 -35 -3 -55 -6 l-38 -7 0 462 c0 253 -4 461 -8 461 -5 0 -63 -30 -130
-66 l-122 -65 0 -375 c0 -265 -3 -374 -11 -374 -6 0 -48 19 -92 42 -62 32
-104 65 -173 133 -77 76 -98 104 -138 185 -60 121 -80 224 -72 365 8 150 53
272 143 392 161 214 439 320 707 268 42 -7 97 -23 122 -35 76 -33 74 -35 74
99 0 87 -4 121 -14 130 -29 24 -199 51 -316 49 -63 0 -126 -3 -140 -5z"/>
<path d="M3140 3324 c-36 -19 -84 -47 -107 -60 l-43 -25 0 -763 c0 -599 -3
-766 -12 -773 -19 -15 -183 -69 -263 -87 -374 -83 -809 51 -1077 332 -204 214
-303 433 -334 735 l-6 67 -135 0 -135 0 7 -87 c14 -181 76 -397 162 -567 43
-85 138 -217 219 -304 396 -426 976 -578 1519 -396 334 111 633 360 809 672
90 160 154 362 170 537 4 39 9 87 12 108 l6 38 -139 -3 -138 -3 -7 -90 c-19
-219 -116 -457 -254 -624 -64 -76 -126 -141 -136 -141 -4 0 -8 325 -8 723 0
731 -1 748 -34 747 -6 0 -40 -16 -76 -36z"/>
</g>
</svg>
