<?xml version="1.0" standalone="no"?>
<!DOCTYPE svg PUBLIC "-//W3C//DTD SVG 20010904//EN"
 "http://www.w3.org/TR/2001/REC-SVG-20010904/DTD/svg10.dtd">
<svg version="1.0" xmlns="http://www.w3.org/2000/svg"
 width="500.000000pt" height="278.000000pt" viewBox="0 0 500.000000 278.000000"
 preserveAspectRatio="xMidYMid meet">

<g transform="translate(0.000000,278.000000) scale(0.100000,-0.100000)"
fill="#fffefe" stroke="none">
<path d="M1030 2150 c-201 -39 -373 -167 -459 -341 -191 -389 36 -834 467
-916 87 -16 100 -16 186 -2 50 9 113 25 139 37 l47 21 0 420 c0 232 -2 421 -5
421 -11 0 -160 -84 -167 -94 -5 -6 -5 -150 -1 -320 6 -293 5 -310 -12 -322
-10 -8 -29 -14 -42 -14 l-23 0 0 310 0 310 -82 -44 -83 -44 -3 -244 c-1 -133
-4 -249 -7 -255 -7 -21 -121 45 -183 106 -153 151 -187 369 -89 565 58 118
192 219 324 247 74 15 193 7 266 -18 l58 -20 -3 85 -3 86 -50 13 c-64 17 -217
25 -275 13z"/>
<path d="M1550 1872 l-65 -38 -5 -514 -5 -514 -60 -23 c-33 -13 -105 -31 -160
-40 -243 -39 -490 43 -671 222 -132 131 -204 277 -226 456 l-11 89 -89 0 -88
0 0 -50 c0 -112 60 -304 134 -430 255 -434 813 -602 1256 -380 311 156 516
450 546 785 l7 75 -92 0 c-50 0 -91 -4 -91 -9 0 -5 -5 -44 -11 -86 -21 -156
-81 -287 -186 -411 -36 -41 -67 -74 -69 -71 -3 2 -6 222 -7 488 -2 559 7 518
-107 451z"/>
<path d="M4193 1894 c-8 -22 10 -49 32 -49 10 0 22 7 28 16 15 24 1 49 -28 49
-15 0 -28 -7 -32 -16z"/>
<path d="M4825 1903 c-19 -4 -20 -12 -20 -162 l0 -158 25 3 c14 1 32 2 40 3
13 1 15 24 12 161 -3 173 0 165 -57 153z"/>
<path d="M3380 1881 c-125 -66 -96 -275 40 -296 31 -5 32 -4 13 6 -35 18 -54
72 -54 148 0 85 12 116 53 141 32 19 32 20 8 20 -14 0 -41 -8 -60 -19z"/>
<path d="M3525 1866 c31 -41 35 -43 35 -18 0 25 -12 38 -39 47 l-24 7 28 -36z"/>
<path d="M1852 1870 c-54 -33 -74 -75 -70 -150 4 -74 23 -109 76 -134 51 -25
73 -21 39 7 -68 55 -61 243 12 282 l26 14 -25 1 c-14 0 -40 -9 -58 -20z"/>
<path d="M1984 1873 c9 -10 23 -27 31 -38 14 -19 14 -19 15 8 0 20 -6 30 -26
37 -36 14 -40 12 -20 -7z"/>
<path d="M2163 1867 c-91 -61 -87 -225 5 -279 46 -28 69 -23 35 6 -28 24 -28
26 -28 134 0 103 2 112 24 136 30 32 10 34 -36 3z"/>
<path d="M2286 1869 c16 -18 19 -37 19 -141 0 -114 -1 -121 -24 -139 -31 -25
-6 -25 36 1 51 31 68 65 68 140 0 75 -17 109 -68 140 -42 26 -55 25 -31 -1z"/>
<path d="M2469 1866 c12 -14 12 -241 1 -276 -4 -12 4 -15 33 -15 l39 0 1 153
2 152 -44 0 c-36 0 -42 -2 -32 -14z"/>
<path d="M2592 1873 c21 -5 31 -37 26 -84 -2 -24 -10 -37 -28 -46 -24 -12 -24
-13 -3 -13 13 0 30 -11 39 -26 23 -34 9 -93 -26 -111 -24 -12 -24 -13 13 -13
46 0 97 44 97 82 0 25 -37 68 -58 68 -19 0 -14 10 13 32 25 19 33 60 17 84
-12 19 -49 34 -79 33 -17 -1 -21 -3 -11 -6z"/>
<path d="M2787 1728 l2 -153 35 0 36 0 0 75 c1 41 2 110 3 153 l2 77 -40 0
-40 0 2 -152z"/>
<path d="M2918 1864 c30 -20 31 -85 2 -112 -20 -19 -20 -19 4 -30 42 -19 40
-106 -4 -130 -23 -13 -22 -13 18 -9 97 11 122 101 40 143 -29 15 -30 17 -12
26 50 27 58 76 18 107 -15 12 -41 21 -58 21 -30 0 -30 0 -8 -16z"/>
<path d="M4381 1838 l-34 -30 2 -92 c2 -106 16 -136 60 -136 16 0 38 3 48 7
16 6 15 8 -7 13 -25 6 -25 7 -30 137 l-5 131 -34 -30z"/>
<path d="M3720 1813 c0 -5 5 -14 10 -19 7 -7 10 -46 8 -95 -3 -80 -4 -84 -27
-87 -42 -6 -54 35 -20 69 28 28 21 31 -28 9 -48 -21 -62 -50 -39 -85 19 -30
70 -34 97 -9 17 15 19 15 34 0 9 -9 27 -16 40 -16 26 0 44 18 28 29 -6 3 -12
41 -15 84 -4 60 -10 83 -24 97 -22 20 -64 36 -64 23z"/>
<path d="M3940 1812 c-59 -20 -62 -22 -50 -37 8 -10 11 -56 8 -154 l-3 -141
35 0 35 0 -2 166 c-1 91 -3 167 -5 169 -2 1 -10 0 -18 -3z"/>
<path d="M3995 1810 c-20 -8 -20 -9 1 -9 38 -2 54 -32 54 -102 0 -71 -16 -105
-53 -112 -12 -2 -3 -5 21 -6 36 -1 49 4 73 28 26 26 29 36 29 91 0 55 -3 65
-29 91 -30 29 -59 35 -96 19z"/>
<path d="M4223 1806 c-18 -6 -33 -14 -33 -18 0 -5 0 -52 0 -105 l0 -98 38 -1
37 -1 -3 96 c-4 148 -2 140 -39 127z"/>
<path d="M4573 1805 c-25 -11 -33 -20 -33 -39 0 -51 41 -43 58 11 6 21 10 38
9 39 -1 1 -17 -4 -34 -11z"/>
<path d="M4639 1806 c8 -9 11 -46 9 -103 -3 -86 -3 -88 -28 -88 -20 0 -26 6
-28 26 -2 15 4 34 14 43 24 25 14 27 -32 7 -48 -22 -59 -43 -41 -79 15 -33 64
-41 100 -17 22 14 26 14 37 0 14 -17 47 -19 70 -5 12 8 12 10 -3 16 -14 5 -17
19 -17 75 0 83 -13 115 -53 129 -39 13 -42 13 -28 -4z"/>
<path d="M3640 1790 c-24 -24 -25 -33 -5 -50 18 -15 45 2 45 29 0 9 5 22 12
29 9 9 7 12 -10 12 -12 0 -31 -9 -42 -20z"/>
<path d="M3534 1621 c-20 -37 -20 -38 -2 -33 23 6 31 22 26 51 -2 17 -7 14
-24 -18z"/>
<path d="M2008 1611 c-25 -37 -25 -39 -5 -32 12 4 25 21 29 36 11 41 5 40 -24
-4z"/>
<path d="M3295 1440 c-8 -13 4 -32 16 -25 12 8 12 35 0 35 -6 0 -13 -4 -16
-10z"/>
<path d="M3875 1440 c-8 -13 4 -32 16 -25 12 8 12 35 0 35 -6 0 -13 -4 -16
-10z"/>
<path d="M4093 1443 c-20 -7 -18 -149 2 -156 20 -8 22 -1 16 84 -4 54 -10 75
-18 72z"/>
<path d="M2800 1366 c0 -65 2 -74 20 -79 19 -5 20 0 20 74 0 72 -2 79 -20 79
-18 0 -20 -7 -20 -74z"/>
<path d="M2875 1394 c0 -46 4 -51 23 -32 18 18 15 56 -6 67 -15 8 -17 4 -17
-35z"/>
<path d="M3093 1409 c-18 -19 -17 -104 2 -119 9 -7 17 -11 18 -9 2 2 1 35 -2
72 -5 55 -8 66 -18 56z"/>
<path d="M2952 1387 c-9 -11 -10 -17 -2 -22 15 -9 23 -1 18 21 -3 15 -4 16
-16 1z"/>
<path d="M3000 1344 c0 -40 4 -56 15 -61 21 -8 22 -6 17 54 -2 32 -9 54 -18
57 -11 4 -14 -6 -14 -50z"/>
<path d="M3185 1394 c-5 -2 -9 -27 -9 -56 1 -39 5 -52 18 -54 13 -2 16 8 16
57 0 57 -3 63 -25 53z"/>
<path d="M3225 1390 c-3 -6 1 -13 10 -16 19 -8 30 0 20 15 -8 14 -22 14 -30 1z"/>
<path d="M3303 1393 c-8 -3 -13 -24 -13 -58 0 -44 3 -53 17 -51 14 2 16 12 14
57 -3 61 -2 58 -18 52z"/>
<path d="M3382 1391 c-9 -5 -12 -25 -10 -59 2 -39 6 -49 16 -43 9 5 12 25 10
59 -2 39 -6 49 -16 43z"/>
<path d="M3434 1385 c3 -9 6 -34 6 -56 0 -29 4 -39 16 -39 12 0 14 10 12 52
-2 43 -7 54 -22 56 -14 3 -17 0 -12 -13z"/>
<path d="M3508 1348 c8 -90 37 -87 30 3 -2 31 -8 45 -19 47 -14 2 -15 -5 -11
-50z"/>
<path d="M3602 1393 c-21 -8 -33 -50 -22 -78 15 -41 28 -29 32 30 1 30 3 55 3
54 0 0 -6 -3 -13 -6z"/>
<path d="M3650 1348 c0 -59 11 -73 30 -39 15 28 12 46 -10 72 l-19 24 -1 -57z"/>
<path d="M3732 1391 c-19 -12 -12 -106 8 -106 11 0 16 13 18 49 3 52 -5 70
-26 57z"/>
<path d="M3788 1345 c3 -46 7 -55 23 -55 16 0 19 7 19 43 0 42 -13 67 -34 67
-7 0 -10 -21 -8 -55z"/>
<path d="M3883 1393 c-14 -5 -18 -99 -5 -107 18 -11 27 12 22 60 -3 35 -9 49
-17 47z"/>
<path d="M3963 1393 c-15 -5 -18 -33 -4 -33 8 0 25 30 19 35 -2 1 -9 0 -15 -2z"/>
<path d="M4000 1356 c0 -54 8 -76 26 -76 17 0 19 71 4 101 -18 32 -30 21 -30
-25z"/>
<path d="M2947 1333 c-4 -3 -7 -14 -7 -24 0 -20 29 -34 44 -19 7 7 6 10 -3 10
-8 0 -11 7 -8 20 5 19 -12 28 -26 13z"/>
<path d="M3951 1326 c-16 -19 -3 -46 21 -46 17 0 18 3 8 15 -7 8 -10 22 -6 30
7 19 -8 20 -23 1z"/>
</g>
</svg>
