<svg width="46" height="46" viewBox="0 0 46 46" fill="none" xmlns="http://www.w3.org/2000/svg">
<path fill-rule="evenodd" clip-rule="evenodd" d="M11.1892 23C11.1892 16.477 16.477 11.1892 23 11.1892C29.523 11.1892 34.8108 16.477 34.8108 23C34.8108 29.523 29.523 34.8108 23 34.8108C16.477 34.8108 11.1892 29.523 11.1892 23ZM23 30.6667C18.7658 30.6667 15.3333 27.2342 15.3333 23C15.3333 18.7658 18.7658 15.3333 23 15.3333C27.2342 15.3333 30.6667 18.7658 30.6667 23C30.6667 27.2342 27.2342 30.6667 23 30.6667Z" fill="white"/>
<path d="M35.2774 13.4825C36.8018 13.4825 38.0375 12.2469 38.0375 10.7226C38.0375 9.19825 36.8018 7.96252 35.2774 7.96252C33.7532 7.96252 32.5175 9.19825 32.5175 10.7226C32.5175 12.2469 33.7532 13.4825 35.2774 13.4825Z" fill="white"/>
<path fill-rule="evenodd" clip-rule="evenodd" d="M23 0C16.7536 0 15.9703 0.0264766 13.5171 0.138409C11.069 0.250067 9.3971 0.638908 7.93413 1.20752C6.42167 1.79521 5.13902 2.58165 3.86029 3.86029C2.58165 5.13902 1.79521 6.42167 1.20752 7.93413C0.638908 9.3971 0.250067 11.069 0.138409 13.5171C0.0264766 15.9703 0 16.7536 0 23C0 29.2464 0.0264766 30.0297 0.138409 32.4829C0.250067 34.931 0.638908 36.6029 1.20752 38.0659C1.79521 39.5783 2.58165 40.861 3.86029 42.1397C5.13902 43.4183 6.42167 44.2048 7.93413 44.7926C9.3971 45.3611 11.069 45.7499 13.5171 45.8616C15.9703 45.9735 16.7536 46 23 46C29.2464 46 30.0297 45.9735 32.4829 45.8616C34.931 45.7499 36.6029 45.3611 38.0659 44.7926C39.5783 44.2048 40.861 43.4183 42.1397 42.1397C43.4183 40.861 44.2048 39.5783 44.7926 38.0659C45.3611 36.6029 45.7499 34.931 45.8616 32.4829C45.9735 30.0297 46 29.2464 46 23C46 16.7536 45.9735 15.9703 45.8616 13.5171C45.7499 11.069 45.3611 9.3971 44.7926 7.93413C44.2048 6.42167 43.4183 5.13902 42.1397 3.86029C40.861 2.58165 39.5783 1.79521 38.0659 1.20752C36.6029 0.638908 34.931 0.250067 32.4829 0.138409C30.0297 0.0264766 29.2464 0 23 0ZM23.0001 4.14414C29.1413 4.14414 29.8687 4.1676 32.294 4.27825C34.5365 4.38051 35.7543 4.7552 36.5647 5.07018C37.6383 5.48741 38.4045 5.98581 39.2093 6.7907C40.0142 7.5955 40.5126 8.36168 40.9298 9.43526C41.2448 10.2457 41.6195 11.4635 41.7218 13.706C41.8324 16.1313 41.8559 16.8588 41.8559 23C41.8559 29.1412 41.8324 29.8687 41.7218 32.294C41.6195 34.5364 41.2448 35.7543 40.9298 36.5647C40.5126 37.6383 40.0142 38.4045 39.2093 39.2093C38.4045 40.0142 37.6383 40.5126 36.5647 40.9298C35.7543 41.2448 34.5365 41.6195 32.294 41.7217C29.8691 41.8324 29.1417 41.8559 23.0001 41.8559C16.8583 41.8559 16.131 41.8324 13.706 41.7217C11.4636 41.6195 10.2457 41.2448 9.43526 40.9298C8.36168 40.5126 7.5955 40.0142 6.79071 39.2093C5.98591 38.4045 5.48742 37.6383 5.07018 36.5647C4.7552 35.7543 4.38051 34.5364 4.27826 32.294C4.16761 29.8687 4.14414 29.1412 4.14414 23C4.14414 16.8588 4.16761 16.1313 4.27826 13.706C4.38051 11.4635 4.7552 10.2457 5.07018 9.43526C5.48742 8.36168 5.98582 7.5955 6.79071 6.7907C7.5955 5.98581 8.36168 5.48741 9.43526 5.07018C10.2457 4.7552 11.4636 4.38051 13.706 4.27825C16.1313 4.1676 16.8588 4.14414 23.0001 4.14414Z" fill="white"/>
</svg>
