<svg width="46" height="48" viewBox="0 0 46 48" fill="none" xmlns="http://www.w3.org/2000/svg">
<path d="M16.0851 13.2606C16.4928 13.2772 16.9438 13.2963 17.3723 14.2489C17.6652 14.9001 18.1579 16.1141 18.5506 17.0815C18.84 17.7944 19.075 18.3735 19.1357 18.4948C19.2787 18.7809 19.374 19.1149 19.1833 19.4969C19.1548 19.5539 19.1284 19.6078 19.1032 19.6593C18.9599 19.9518 18.8546 20.1667 18.6119 20.4507C18.5168 20.5618 18.4185 20.6814 18.3201 20.801C18.1227 21.0411 17.9252 21.2813 17.7538 21.4524C17.4668 21.7376 17.1688 22.0475 17.5025 22.6196C17.8363 23.1922 18.9843 25.0646 20.6848 26.5807C22.5116 28.2094 24.0985 28.8983 24.9044 29.2482C25.0627 29.3169 25.1908 29.3725 25.2847 29.4196C25.8568 29.7057 26.1905 29.658 26.5242 29.2757C26.858 28.8943 27.9536 27.6062 28.335 27.0341C28.7163 26.4614 29.0977 26.5568 29.6221 26.7475C30.1466 26.9382 32.9587 28.3222 33.5308 28.6082C33.6424 28.664 33.7466 28.7143 33.8433 28.761C34.2425 28.9537 34.5121 29.0838 34.6273 29.2757C34.7703 29.515 34.7703 30.6597 34.2936 31.9953C33.8169 33.331 31.4814 34.6191 30.4326 34.7145C30.3317 34.7236 30.2313 34.7354 30.1281 34.7476C29.1589 34.8615 27.9355 35.0054 23.5684 33.2833C18.1949 31.1642 14.6519 25.913 13.9199 24.828C13.8599 24.7391 13.8187 24.6781 13.7971 24.6492L13.7907 24.6407C13.4822 24.2285 11.4614 21.5278 11.4614 18.7332C11.4614 16.099 12.7562 14.7181 13.352 14.0828C13.3927 14.0394 13.4301 13.9994 13.4637 13.9628C13.9877 13.3904 14.6076 13.2472 14.9889 13.2472C15.0098 13.2472 15.0307 13.2472 15.0516 13.2472C15.4117 13.2471 15.77 13.2471 16.0851 13.2606Z" fill="white"/>
<path fill-rule="evenodd" clip-rule="evenodd" d="M3.27912 35.2254C1.24699 31.7616 0.184739 27.8359 0.184739 23.7716C0.184739 11.1632 10.4839 0.910156 23.0924 0.910156C29.2349 0.910156 34.9618 3.31176 39.3032 7.60694C43.5984 11.9483 46 17.6752 46 23.8178C46 36.4262 35.7008 46.6792 23.0924 46.6792C19.259 46.6792 15.4719 45.7555 12.1466 43.9082L0 47.0949L3.27912 35.2254ZM6.97389 33.9322L7.43574 34.625L5.49599 41.6451L12.7008 39.7515L13.3936 40.1672C16.3032 41.9222 19.6747 42.8459 23.0924 42.8459C33.5763 42.8459 42.1205 34.3017 42.1205 23.8178C42.1205 18.7375 40.1345 13.9343 36.5321 10.3318C32.9759 6.77562 28.1727 4.78967 23.0924 4.78967C12.6084 4.78967 4.06426 13.2877 4.06426 23.8178C4.06426 27.374 5.08032 30.8841 6.97389 33.9322Z" fill="white"/>
</svg>
